<mxfile host="app.diagrams.net" modified="2020-11-04T07:35:11.990Z" agent="5.0 (Macintosh; Intel Mac OS X 10_14_0) AppleWebKit/537.36 (KHTML, like Gecko) Chrome/85.0.4183.121 Safari/537.36" etag="wUOEEOIbP3LPfCz2wMet" version="13.8.9-1" type="github">
  <diagram id="CqDLDWrJa-jndo9C78Bm" name="Page-1">
    <mxGraphModel dx="788" dy="452" grid="1" gridSize="10" guides="1" tooltips="1" connect="1" arrows="1" fold="1" page="1" pageScale="1" pageWidth="4681" pageHeight="3300" math="0" shadow="0">
      <root>
        <mxCell id="0" />
        <mxCell id="1" parent="0" />
        <mxCell id="YZ6cj2licxc5QXh-B7IP-3" value="调用支付中心退押金" style="verticalLabelPosition=bottom;verticalAlign=top;html=1;shape=process;whiteSpace=wrap;rounded=1;size=0.14;arcSize=6;fillColor=#fff2cc;strokeColor=#d6b656;" parent="1" vertex="1">
          <mxGeometry x="1910" y="1260" width="110" height="60" as="geometry" />
        </mxCell>
        <mxCell id="YZ6cj2licxc5QXh-B7IP-10" style="edgeStyle=orthogonalEdgeStyle;rounded=0;orthogonalLoop=1;jettySize=auto;html=1;exitX=1;exitY=0.5;exitDx=0;exitDy=0;exitPerimeter=0;" parent="1" source="YZ6cj2licxc5QXh-B7IP-4" target="YZ6cj2licxc5QXh-B7IP-5" edge="1">
          <mxGeometry relative="1" as="geometry">
            <mxPoint x="1680" y="1040" as="targetPoint" />
            <Array as="points">
              <mxPoint x="1660" y="980" />
            </Array>
          </mxGeometry>
        </mxCell>
        <mxCell id="YZ6cj2licxc5QXh-B7IP-14" value="是" style="edgeLabel;html=1;align=center;verticalAlign=middle;resizable=0;points=[];" parent="YZ6cj2licxc5QXh-B7IP-10" vertex="1" connectable="0">
          <mxGeometry x="0.1067" y="2" relative="1" as="geometry">
            <mxPoint as="offset" />
          </mxGeometry>
        </mxCell>
        <mxCell id="YZ6cj2licxc5QXh-B7IP-18" style="edgeStyle=orthogonalEdgeStyle;rounded=0;orthogonalLoop=1;jettySize=auto;html=1;entryX=0.25;entryY=0;entryDx=0;entryDy=0;" parent="1" source="YZ6cj2licxc5QXh-B7IP-4" target="YZ6cj2licxc5QXh-B7IP-26" edge="1">
          <mxGeometry relative="1" as="geometry">
            <mxPoint x="1500" y="1150" as="targetPoint" />
          </mxGeometry>
        </mxCell>
        <mxCell id="YZ6cj2licxc5QXh-B7IP-19" value="否" style="edgeLabel;html=1;align=center;verticalAlign=middle;resizable=0;points=[];" parent="YZ6cj2licxc5QXh-B7IP-18" vertex="1" connectable="0">
          <mxGeometry x="0.3333" y="-2" relative="1" as="geometry">
            <mxPoint as="offset" />
          </mxGeometry>
        </mxCell>
        <mxCell id="YZ6cj2licxc5QXh-B7IP-4" value="需要房东确认" style="strokeWidth=2;html=1;shape=mxgraph.flowchart.decision;whiteSpace=wrap;" parent="1" vertex="1">
          <mxGeometry x="1530" y="930" width="100" height="100" as="geometry" />
        </mxCell>
        <mxCell id="YZ6cj2licxc5QXh-B7IP-30" style="edgeStyle=orthogonalEdgeStyle;rounded=0;orthogonalLoop=1;jettySize=auto;html=1;exitX=0.5;exitY=1;exitDx=0;exitDy=0;exitPerimeter=0;entryX=0.75;entryY=0;entryDx=0;entryDy=0;" parent="1" source="YZ6cj2licxc5QXh-B7IP-5" target="YZ6cj2licxc5QXh-B7IP-26" edge="1">
          <mxGeometry relative="1" as="geometry" />
        </mxCell>
        <mxCell id="YZ6cj2licxc5QXh-B7IP-31" value="是" style="edgeLabel;html=1;align=center;verticalAlign=middle;resizable=0;points=[];" parent="YZ6cj2licxc5QXh-B7IP-30" vertex="1" connectable="0">
          <mxGeometry x="-0.5459" y="2" relative="1" as="geometry">
            <mxPoint as="offset" />
          </mxGeometry>
        </mxCell>
        <mxCell id="YZ6cj2licxc5QXh-B7IP-42" style="edgeStyle=orthogonalEdgeStyle;rounded=0;orthogonalLoop=1;jettySize=auto;html=1;entryX=0.5;entryY=0;entryDx=0;entryDy=0;entryPerimeter=0;" parent="1" source="YZ6cj2licxc5QXh-B7IP-5" target="YZ6cj2licxc5QXh-B7IP-34" edge="1">
          <mxGeometry relative="1" as="geometry" />
        </mxCell>
        <mxCell id="YZ6cj2licxc5QXh-B7IP-43" value="否" style="edgeLabel;html=1;align=center;verticalAlign=middle;resizable=0;points=[];" parent="YZ6cj2licxc5QXh-B7IP-42" vertex="1" connectable="0">
          <mxGeometry x="-0.2721" y="2" relative="1" as="geometry">
            <mxPoint as="offset" />
          </mxGeometry>
        </mxCell>
        <mxCell id="YZ6cj2licxc5QXh-B7IP-5" value="房东确认" style="strokeWidth=2;html=1;shape=mxgraph.flowchart.decision;whiteSpace=wrap;" parent="1" vertex="1">
          <mxGeometry x="1610" y="1060" width="100" height="100" as="geometry" />
        </mxCell>
        <mxCell id="YZ6cj2licxc5QXh-B7IP-27" style="edgeStyle=orthogonalEdgeStyle;rounded=0;orthogonalLoop=1;jettySize=auto;html=1;exitX=0.5;exitY=1;exitDx=0;exitDy=0;exitPerimeter=0;entryX=0.5;entryY=0;entryDx=0;entryDy=0;entryPerimeter=0;" parent="1" source="YZ6cj2licxc5QXh-B7IP-6" target="YZ6cj2licxc5QXh-B7IP-25" edge="1">
          <mxGeometry relative="1" as="geometry" />
        </mxCell>
        <mxCell id="YZ6cj2licxc5QXh-B7IP-44" style="edgeStyle=orthogonalEdgeStyle;rounded=0;orthogonalLoop=1;jettySize=auto;html=1;entryX=0;entryY=0.5;entryDx=0;entryDy=0;dashed=1;" parent="1" source="YZ6cj2licxc5QXh-B7IP-6" target="YZ6cj2licxc5QXh-B7IP-7" edge="1">
          <mxGeometry relative="1" as="geometry">
            <Array as="points">
              <mxPoint x="2150" y="660" />
              <mxPoint x="2150" y="710" />
            </Array>
          </mxGeometry>
        </mxCell>
        <mxCell id="YZ6cj2licxc5QXh-B7IP-6" value="用户下单" style="strokeWidth=2;html=1;shape=mxgraph.flowchart.start_1;whiteSpace=wrap;" parent="1" vertex="1">
          <mxGeometry x="1530" y="630" width="100" height="60" as="geometry" />
        </mxCell>
        <mxCell id="YZ6cj2licxc5QXh-B7IP-106" style="edgeStyle=orthogonalEdgeStyle;rounded=0;orthogonalLoop=1;jettySize=auto;html=1;entryX=0.5;entryY=0;entryDx=0;entryDy=0;entryPerimeter=0;" parent="1" source="YZ6cj2licxc5QXh-B7IP-7" target="YZ6cj2licxc5QXh-B7IP-90" edge="1">
          <mxGeometry relative="1" as="geometry" />
        </mxCell>
        <mxCell id="YZ6cj2licxc5QXh-B7IP-7" value="押金生成押金单" style="verticalLabelPosition=bottom;verticalAlign=top;html=1;shape=process;whiteSpace=wrap;rounded=1;size=0.14;arcSize=6;" parent="1" vertex="1">
          <mxGeometry x="2315" y="680" width="100" height="60" as="geometry" />
        </mxCell>
        <mxCell id="YZ6cj2licxc5QXh-B7IP-12" value="订单修改为取消" style="verticalLabelPosition=bottom;verticalAlign=top;html=1;shape=process;whiteSpace=wrap;rounded=1;size=0.14;arcSize=6;" parent="1" vertex="1">
          <mxGeometry x="1757.5" y="1260" width="100" height="60" as="geometry" />
        </mxCell>
        <mxCell id="YZ6cj2licxc5QXh-B7IP-28" style="edgeStyle=orthogonalEdgeStyle;rounded=0;orthogonalLoop=1;jettySize=auto;html=1;exitX=0.5;exitY=1;exitDx=0;exitDy=0;exitPerimeter=0;entryX=0.5;entryY=0;entryDx=0;entryDy=0;entryPerimeter=0;" parent="1" source="YZ6cj2licxc5QXh-B7IP-25" target="YZ6cj2licxc5QXh-B7IP-4" edge="1">
          <mxGeometry relative="1" as="geometry" />
        </mxCell>
        <mxCell id="YZ6cj2licxc5QXh-B7IP-32" value="是" style="edgeLabel;html=1;align=center;verticalAlign=middle;resizable=0;points=[];" parent="YZ6cj2licxc5QXh-B7IP-28" vertex="1" connectable="0">
          <mxGeometry x="-0.0286" y="4" relative="1" as="geometry">
            <mxPoint as="offset" />
          </mxGeometry>
        </mxCell>
        <mxCell id="YZ6cj2licxc5QXh-B7IP-41" style="edgeStyle=orthogonalEdgeStyle;rounded=0;orthogonalLoop=1;jettySize=auto;html=1;entryX=0;entryY=0.5;entryDx=0;entryDy=0;" parent="1" source="YZ6cj2licxc5QXh-B7IP-25" target="YZ6cj2licxc5QXh-B7IP-40" edge="1">
          <mxGeometry relative="1" as="geometry" />
        </mxCell>
        <mxCell id="YZ6cj2licxc5QXh-B7IP-25" value="支付" style="strokeWidth=2;html=1;shape=mxgraph.flowchart.decision;whiteSpace=wrap;" parent="1" vertex="1">
          <mxGeometry x="1530" y="760" width="100" height="100" as="geometry" />
        </mxCell>
        <mxCell id="YZ6cj2licxc5QXh-B7IP-66" style="edgeStyle=orthogonalEdgeStyle;rounded=0;orthogonalLoop=1;jettySize=auto;html=1;entryX=0.5;entryY=0;entryDx=0;entryDy=0;entryPerimeter=0;" parent="1" source="YZ6cj2licxc5QXh-B7IP-26" target="YZ6cj2licxc5QXh-B7IP-38" edge="1">
          <mxGeometry relative="1" as="geometry" />
        </mxCell>
        <mxCell id="YZ6cj2licxc5QXh-B7IP-26" value="订单修改为待入住" style="verticalLabelPosition=bottom;verticalAlign=top;html=1;shape=process;whiteSpace=wrap;rounded=1;size=0.14;arcSize=6;" parent="1" vertex="1">
          <mxGeometry x="1490" y="1250" width="100" height="60" as="geometry" />
        </mxCell>
        <mxCell id="YZ6cj2licxc5QXh-B7IP-46" style="edgeStyle=orthogonalEdgeStyle;rounded=0;orthogonalLoop=1;jettySize=auto;html=1;entryX=0.5;entryY=0;entryDx=0;entryDy=0;" parent="1" source="YZ6cj2licxc5QXh-B7IP-34" target="YZ6cj2licxc5QXh-B7IP-12" edge="1">
          <mxGeometry relative="1" as="geometry">
            <mxPoint x="1807.5" y="1250" as="targetPoint" />
          </mxGeometry>
        </mxCell>
        <mxCell id="YZ6cj2licxc5QXh-B7IP-47" style="edgeStyle=orthogonalEdgeStyle;rounded=0;orthogonalLoop=1;jettySize=auto;html=1;" parent="1" source="YZ6cj2licxc5QXh-B7IP-34" target="YZ6cj2licxc5QXh-B7IP-3" edge="1">
          <mxGeometry relative="1" as="geometry" />
        </mxCell>
        <mxCell id="YZ6cj2licxc5QXh-B7IP-34" value="" style="verticalLabelPosition=bottom;verticalAlign=top;html=1;shape=mxgraph.flowchart.parallel_mode;pointerEvents=1" parent="1" vertex="1">
          <mxGeometry x="1760" y="1160" width="90" height="40" as="geometry" />
        </mxCell>
        <mxCell id="YZ6cj2licxc5QXh-B7IP-67" style="edgeStyle=orthogonalEdgeStyle;rounded=0;orthogonalLoop=1;jettySize=auto;html=1;exitX=0.5;exitY=1;exitDx=0;exitDy=0;exitPerimeter=0;entryX=0.5;entryY=0;entryDx=0;entryDy=0;entryPerimeter=0;" parent="1" source="YZ6cj2licxc5QXh-B7IP-38" target="YZ6cj2licxc5QXh-B7IP-63" edge="1">
          <mxGeometry relative="1" as="geometry" />
        </mxCell>
        <mxCell id="YZ6cj2licxc5QXh-B7IP-68" value="否" style="edgeLabel;html=1;align=center;verticalAlign=middle;resizable=0;points=[];" parent="YZ6cj2licxc5QXh-B7IP-67" vertex="1" connectable="0">
          <mxGeometry x="-0.2857" y="2" relative="1" as="geometry">
            <mxPoint as="offset" />
          </mxGeometry>
        </mxCell>
        <mxCell id="YZ6cj2licxc5QXh-B7IP-80" style="edgeStyle=orthogonalEdgeStyle;rounded=0;orthogonalLoop=1;jettySize=auto;html=1;exitX=1;exitY=0.5;exitDx=0;exitDy=0;exitPerimeter=0;entryX=0.5;entryY=0;entryDx=0;entryDy=0;entryPerimeter=0;" parent="1" source="YZ6cj2licxc5QXh-B7IP-38" target="YZ6cj2licxc5QXh-B7IP-55" edge="1">
          <mxGeometry relative="1" as="geometry" />
        </mxCell>
        <mxCell id="YZ6cj2licxc5QXh-B7IP-81" value="是" style="edgeLabel;html=1;align=center;verticalAlign=middle;resizable=0;points=[];" parent="YZ6cj2licxc5QXh-B7IP-80" vertex="1" connectable="0">
          <mxGeometry x="-0.0953" y="-2" relative="1" as="geometry">
            <mxPoint as="offset" />
          </mxGeometry>
        </mxCell>
        <mxCell id="YZ6cj2licxc5QXh-B7IP-38" value="取消订单" style="strokeWidth=2;html=1;shape=mxgraph.flowchart.decision;whiteSpace=wrap;" parent="1" vertex="1">
          <mxGeometry x="1490" y="1360" width="100" height="60" as="geometry" />
        </mxCell>
        <mxCell id="YZ6cj2licxc5QXh-B7IP-40" value="订单修改为取消" style="verticalLabelPosition=bottom;verticalAlign=top;html=1;shape=process;whiteSpace=wrap;rounded=1;size=0.14;arcSize=6;" parent="1" vertex="1">
          <mxGeometry x="1710" y="780" width="100" height="60" as="geometry" />
        </mxCell>
        <mxCell id="IQoeNceA4I0Qv3CxPhP2-16" style="edgeStyle=orthogonalEdgeStyle;rounded=0;orthogonalLoop=1;jettySize=auto;html=1;entryX=0.75;entryY=0;entryDx=0;entryDy=0;" edge="1" parent="1" source="YZ6cj2licxc5QXh-B7IP-51" target="IQoeNceA4I0Qv3CxPhP2-12">
          <mxGeometry relative="1" as="geometry" />
        </mxCell>
        <mxCell id="YZ6cj2licxc5QXh-B7IP-51" value="调用支付中心退押金" style="verticalLabelPosition=bottom;verticalAlign=top;html=1;shape=process;whiteSpace=wrap;rounded=1;size=0.14;arcSize=6;fillColor=#fff2cc;strokeColor=#d6b656;" parent="1" vertex="1">
          <mxGeometry x="2310" y="2000" width="110" height="60" as="geometry" />
        </mxCell>
        <mxCell id="YZ6cj2licxc5QXh-B7IP-52" value="订单修改为取消" style="verticalLabelPosition=bottom;verticalAlign=top;html=1;shape=process;whiteSpace=wrap;rounded=1;size=0.14;arcSize=6;" parent="1" vertex="1">
          <mxGeometry x="1755" y="1540" width="100" height="60" as="geometry" />
        </mxCell>
        <mxCell id="YZ6cj2licxc5QXh-B7IP-53" style="edgeStyle=orthogonalEdgeStyle;rounded=0;orthogonalLoop=1;jettySize=auto;html=1;entryX=0.5;entryY=0;entryDx=0;entryDy=0;" parent="1" source="YZ6cj2licxc5QXh-B7IP-55" target="YZ6cj2licxc5QXh-B7IP-52" edge="1">
          <mxGeometry relative="1" as="geometry">
            <mxPoint x="1810" y="1530" as="targetPoint" />
          </mxGeometry>
        </mxCell>
        <mxCell id="YZ6cj2licxc5QXh-B7IP-105" style="edgeStyle=orthogonalEdgeStyle;rounded=0;orthogonalLoop=1;jettySize=auto;html=1;" parent="1" source="YZ6cj2licxc5QXh-B7IP-55" target="YZ6cj2licxc5QXh-B7IP-56" edge="1">
          <mxGeometry relative="1" as="geometry" />
        </mxCell>
        <mxCell id="YZ6cj2licxc5QXh-B7IP-55" value="" style="verticalLabelPosition=bottom;verticalAlign=top;html=1;shape=mxgraph.flowchart.parallel_mode;pointerEvents=1" parent="1" vertex="1">
          <mxGeometry x="1762.5" y="1440" width="90" height="40" as="geometry" />
        </mxCell>
        <mxCell id="IQoeNceA4I0Qv3CxPhP2-4" style="edgeStyle=orthogonalEdgeStyle;rounded=0;orthogonalLoop=1;jettySize=auto;html=1;entryX=0;entryY=0.5;entryDx=0;entryDy=0;" edge="1" parent="1" source="YZ6cj2licxc5QXh-B7IP-56" target="IQoeNceA4I0Qv3CxPhP2-2">
          <mxGeometry relative="1" as="geometry" />
        </mxCell>
        <mxCell id="YZ6cj2licxc5QXh-B7IP-56" value="发送订单取消消息" style="verticalLabelPosition=bottom;verticalAlign=top;html=1;shape=process;whiteSpace=wrap;rounded=1;size=0.2;arcSize=8;" parent="1" vertex="1">
          <mxGeometry x="1890" y="1540" width="100" height="60" as="geometry" />
        </mxCell>
        <mxCell id="YZ6cj2licxc5QXh-B7IP-77" style="edgeStyle=orthogonalEdgeStyle;rounded=0;orthogonalLoop=1;jettySize=auto;html=1;entryX=0.5;entryY=0;entryDx=0;entryDy=0;" parent="1" source="YZ6cj2licxc5QXh-B7IP-58" target="YZ6cj2licxc5QXh-B7IP-62" edge="1">
          <mxGeometry relative="1" as="geometry" />
        </mxCell>
        <mxCell id="YZ6cj2licxc5QXh-B7IP-58" value="订单修改为入住中" style="verticalLabelPosition=bottom;verticalAlign=top;html=1;shape=process;whiteSpace=wrap;rounded=1;size=0.14;arcSize=6;" parent="1" vertex="1">
          <mxGeometry x="1490" y="1620" width="100" height="60" as="geometry" />
        </mxCell>
        <mxCell id="YZ6cj2licxc5QXh-B7IP-75" style="edgeStyle=orthogonalEdgeStyle;rounded=0;orthogonalLoop=1;jettySize=auto;html=1;exitX=1;exitY=0.5;exitDx=0;exitDy=0;" parent="1" source="YZ6cj2licxc5QXh-B7IP-62" edge="1">
          <mxGeometry relative="1" as="geometry">
            <mxPoint x="1810" y="1430" as="targetPoint" />
            <Array as="points">
              <mxPoint x="1680" y="1765" />
              <mxPoint x="1680" y="1430" />
            </Array>
          </mxGeometry>
        </mxCell>
        <mxCell id="YZ6cj2licxc5QXh-B7IP-76" value="是" style="edgeLabel;html=1;align=center;verticalAlign=middle;resizable=0;points=[];" parent="YZ6cj2licxc5QXh-B7IP-75" vertex="1" connectable="0">
          <mxGeometry x="0.2364" y="-13" relative="1" as="geometry">
            <mxPoint as="offset" />
          </mxGeometry>
        </mxCell>
        <mxCell id="YZ6cj2licxc5QXh-B7IP-85" style="edgeStyle=orthogonalEdgeStyle;rounded=0;orthogonalLoop=1;jettySize=auto;html=1;entryX=0.5;entryY=0;entryDx=0;entryDy=0;entryPerimeter=0;" parent="1" source="YZ6cj2licxc5QXh-B7IP-62" target="YZ6cj2licxc5QXh-B7IP-79" edge="1">
          <mxGeometry relative="1" as="geometry" />
        </mxCell>
        <mxCell id="YZ6cj2licxc5QXh-B7IP-86" value="否" style="edgeLabel;html=1;align=center;verticalAlign=middle;resizable=0;points=[];" parent="YZ6cj2licxc5QXh-B7IP-85" vertex="1" connectable="0">
          <mxGeometry x="-0.0667" y="3" relative="1" as="geometry">
            <mxPoint as="offset" />
          </mxGeometry>
        </mxCell>
        <mxCell id="YZ6cj2licxc5QXh-B7IP-62" value="中途离店" style="rhombus;whiteSpace=wrap;html=1;" parent="1" vertex="1">
          <mxGeometry x="1470" y="1740" width="140" height="50" as="geometry" />
        </mxCell>
        <mxCell id="YZ6cj2licxc5QXh-B7IP-69" value="是" style="edgeStyle=orthogonalEdgeStyle;rounded=0;orthogonalLoop=1;jettySize=auto;html=1;entryX=0.5;entryY=0;entryDx=0;entryDy=0;" parent="1" source="YZ6cj2licxc5QXh-B7IP-63" target="YZ6cj2licxc5QXh-B7IP-58" edge="1">
          <mxGeometry relative="1" as="geometry" />
        </mxCell>
        <mxCell id="YZ6cj2licxc5QXh-B7IP-73" style="edgeStyle=orthogonalEdgeStyle;rounded=0;orthogonalLoop=1;jettySize=auto;html=1;entryX=0.5;entryY=1;entryDx=0;entryDy=0;entryPerimeter=0;" parent="1" source="YZ6cj2licxc5QXh-B7IP-63" target="YZ6cj2licxc5QXh-B7IP-72" edge="1">
          <mxGeometry relative="1" as="geometry" />
        </mxCell>
        <mxCell id="YZ6cj2licxc5QXh-B7IP-115" value="否" style="edgeLabel;html=1;align=center;verticalAlign=middle;resizable=0;points=[];" parent="YZ6cj2licxc5QXh-B7IP-73" vertex="1" connectable="0">
          <mxGeometry x="-0.0673" y="-2" relative="1" as="geometry">
            <mxPoint x="1" as="offset" />
          </mxGeometry>
        </mxCell>
        <mxCell id="YZ6cj2licxc5QXh-B7IP-63" value="到达入住时间" style="strokeWidth=2;html=1;shape=mxgraph.flowchart.decision;whiteSpace=wrap;" parent="1" vertex="1">
          <mxGeometry x="1490" y="1490" width="100" height="70" as="geometry" />
        </mxCell>
        <mxCell id="IQoeNceA4I0Qv3CxPhP2-74" style="edgeStyle=orthogonalEdgeStyle;rounded=0;orthogonalLoop=1;jettySize=auto;html=1;entryX=0.5;entryY=0;entryDx=0;entryDy=0;entryPerimeter=0;" edge="1" parent="1" source="YZ6cj2licxc5QXh-B7IP-65" target="IQoeNceA4I0Qv3CxPhP2-75">
          <mxGeometry relative="1" as="geometry">
            <mxPoint x="1540" y="2040" as="targetPoint" />
          </mxGeometry>
        </mxCell>
        <mxCell id="YZ6cj2licxc5QXh-B7IP-65" value="订单修改为离店" style="verticalLabelPosition=bottom;verticalAlign=top;html=1;shape=process;whiteSpace=wrap;rounded=1;size=0.14;arcSize=6;" parent="1" vertex="1">
          <mxGeometry x="1490" y="1920" width="100" height="60" as="geometry" />
        </mxCell>
        <mxCell id="YZ6cj2licxc5QXh-B7IP-74" style="edgeStyle=orthogonalEdgeStyle;rounded=0;orthogonalLoop=1;jettySize=auto;html=1;entryX=0.5;entryY=0;entryDx=0;entryDy=0;entryPerimeter=0;" parent="1" source="YZ6cj2licxc5QXh-B7IP-72" target="YZ6cj2licxc5QXh-B7IP-38" edge="1">
          <mxGeometry relative="1" as="geometry">
            <Array as="points">
              <mxPoint x="1410" y="1340" />
              <mxPoint x="1540" y="1340" />
            </Array>
          </mxGeometry>
        </mxCell>
        <mxCell id="YZ6cj2licxc5QXh-B7IP-72" value="每天定时判断" style="strokeWidth=2;html=1;shape=mxgraph.flowchart.loop_limit;whiteSpace=wrap;" parent="1" vertex="1">
          <mxGeometry x="1370" y="1410" width="100" height="60" as="geometry" />
        </mxCell>
        <mxCell id="YZ6cj2licxc5QXh-B7IP-83" style="edgeStyle=orthogonalEdgeStyle;rounded=0;orthogonalLoop=1;jettySize=auto;html=1;entryX=1;entryY=0.5;entryDx=0;entryDy=0;entryPerimeter=0;" parent="1" source="YZ6cj2licxc5QXh-B7IP-79" target="YZ6cj2licxc5QXh-B7IP-82" edge="1">
          <mxGeometry relative="1" as="geometry" />
        </mxCell>
        <mxCell id="YZ6cj2licxc5QXh-B7IP-88" value="否" style="edgeLabel;html=1;align=center;verticalAlign=middle;resizable=0;points=[];" parent="YZ6cj2licxc5QXh-B7IP-83" vertex="1" connectable="0">
          <mxGeometry x="0.28" y="4" relative="1" as="geometry">
            <mxPoint as="offset" />
          </mxGeometry>
        </mxCell>
        <mxCell id="YZ6cj2licxc5QXh-B7IP-87" value="是" style="edgeStyle=orthogonalEdgeStyle;rounded=0;orthogonalLoop=1;jettySize=auto;html=1;exitX=0.5;exitY=1;exitDx=0;exitDy=0;exitPerimeter=0;entryX=0.5;entryY=0;entryDx=0;entryDy=0;" parent="1" source="YZ6cj2licxc5QXh-B7IP-79" target="YZ6cj2licxc5QXh-B7IP-65" edge="1">
          <mxGeometry relative="1" as="geometry" />
        </mxCell>
        <mxCell id="YZ6cj2licxc5QXh-B7IP-79" value="到达离店时间" style="strokeWidth=2;html=1;shape=mxgraph.flowchart.decision;whiteSpace=wrap;" parent="1" vertex="1">
          <mxGeometry x="1475" y="1830" width="130" height="45" as="geometry" />
        </mxCell>
        <mxCell id="YZ6cj2licxc5QXh-B7IP-84" style="edgeStyle=orthogonalEdgeStyle;rounded=0;orthogonalLoop=1;jettySize=auto;html=1;entryX=0.5;entryY=0;entryDx=0;entryDy=0;" parent="1" source="YZ6cj2licxc5QXh-B7IP-82" target="YZ6cj2licxc5QXh-B7IP-62" edge="1">
          <mxGeometry relative="1" as="geometry">
            <mxPoint x="1390" y="1700" as="targetPoint" />
            <Array as="points">
              <mxPoint x="1410" y="1720" />
              <mxPoint x="1540" y="1720" />
            </Array>
          </mxGeometry>
        </mxCell>
        <mxCell id="YZ6cj2licxc5QXh-B7IP-82" value="每天定时判断" style="strokeWidth=2;html=1;shape=mxgraph.flowchart.loop_limit;whiteSpace=wrap;" parent="1" vertex="1">
          <mxGeometry x="1350" y="1822.5" width="100" height="60" as="geometry" />
        </mxCell>
        <mxCell id="YZ6cj2licxc5QXh-B7IP-116" style="edgeStyle=orthogonalEdgeStyle;rounded=0;orthogonalLoop=1;jettySize=auto;html=1;exitX=0.5;exitY=0;exitDx=0;exitDy=0;exitPerimeter=0;entryX=0.5;entryY=0;entryDx=0;entryDy=0;entryPerimeter=0;" parent="1" source="YZ6cj2licxc5QXh-B7IP-89" target="YZ6cj2licxc5QXh-B7IP-90" edge="1">
          <mxGeometry relative="1" as="geometry" />
        </mxCell>
        <mxCell id="YZ6cj2licxc5QXh-B7IP-89" value="定时监控是否应退款" style="strokeWidth=2;html=1;shape=mxgraph.flowchart.loop_limit;whiteSpace=wrap;" parent="1" vertex="1">
          <mxGeometry x="2200" y="1380" width="100" height="60" as="geometry" />
        </mxCell>
        <mxCell id="YZ6cj2licxc5QXh-B7IP-96" style="edgeStyle=orthogonalEdgeStyle;rounded=0;orthogonalLoop=1;jettySize=auto;html=1;entryX=0.5;entryY=0;entryDx=0;entryDy=0;entryPerimeter=0;" parent="1" source="YZ6cj2licxc5QXh-B7IP-90" target="YZ6cj2licxc5QXh-B7IP-92" edge="1">
          <mxGeometry relative="1" as="geometry" />
        </mxCell>
        <mxCell id="YZ6cj2licxc5QXh-B7IP-97" value="否" style="edgeLabel;html=1;align=center;verticalAlign=middle;resizable=0;points=[];" parent="YZ6cj2licxc5QXh-B7IP-96" vertex="1" connectable="0">
          <mxGeometry x="-0.125" y="4" relative="1" as="geometry">
            <mxPoint as="offset" />
          </mxGeometry>
        </mxCell>
        <mxCell id="YZ6cj2licxc5QXh-B7IP-98" value="是" style="edgeStyle=orthogonalEdgeStyle;rounded=0;orthogonalLoop=1;jettySize=auto;html=1;entryX=0;entryY=0.5;entryDx=0;entryDy=0;entryPerimeter=0;" parent="1" source="YZ6cj2licxc5QXh-B7IP-90" target="YZ6cj2licxc5QXh-B7IP-91" edge="1">
          <mxGeometry relative="1" as="geometry" />
        </mxCell>
        <mxCell id="YZ6cj2licxc5QXh-B7IP-90" value="房东申请押金赔偿" style="strokeWidth=2;html=1;shape=mxgraph.flowchart.decision;whiteSpace=wrap;" parent="1" vertex="1">
          <mxGeometry x="2315" y="1440" width="100" height="100" as="geometry" />
        </mxCell>
        <mxCell id="YZ6cj2licxc5QXh-B7IP-103" value="否" style="edgeStyle=orthogonalEdgeStyle;rounded=0;orthogonalLoop=1;jettySize=auto;html=1;entryX=0;entryY=0.5;entryDx=0;entryDy=0;" parent="1" source="YZ6cj2licxc5QXh-B7IP-91" edge="1" target="IQoeNceA4I0Qv3CxPhP2-7">
          <mxGeometry relative="1" as="geometry">
            <mxPoint x="2664.9999999999995" y="1490" as="targetPoint" />
          </mxGeometry>
        </mxCell>
        <mxCell id="IQoeNceA4I0Qv3CxPhP2-17" style="edgeStyle=orthogonalEdgeStyle;rounded=0;orthogonalLoop=1;jettySize=auto;html=1;entryX=0.5;entryY=0;entryDx=0;entryDy=0;entryPerimeter=0;" edge="1" parent="1" source="YZ6cj2licxc5QXh-B7IP-91" target="IQoeNceA4I0Qv3CxPhP2-30">
          <mxGeometry relative="1" as="geometry" />
        </mxCell>
        <mxCell id="YZ6cj2licxc5QXh-B7IP-91" value="用户同意赔偿" style="strokeWidth=2;html=1;shape=mxgraph.flowchart.decision;whiteSpace=wrap;" parent="1" vertex="1">
          <mxGeometry x="2485" y="1440" width="100" height="100" as="geometry" />
        </mxCell>
        <mxCell id="YZ6cj2licxc5QXh-B7IP-93" style="edgeStyle=orthogonalEdgeStyle;rounded=0;orthogonalLoop=1;jettySize=auto;html=1;entryX=0.5;entryY=1;entryDx=0;entryDy=0;entryPerimeter=0;" parent="1" source="YZ6cj2licxc5QXh-B7IP-92" target="YZ6cj2licxc5QXh-B7IP-89" edge="1">
          <mxGeometry relative="1" as="geometry">
            <Array as="points">
              <mxPoint x="2250" y="1660" />
            </Array>
          </mxGeometry>
        </mxCell>
        <mxCell id="YZ6cj2licxc5QXh-B7IP-94" value="否" style="edgeLabel;html=1;align=center;verticalAlign=middle;resizable=0;points=[];" parent="YZ6cj2licxc5QXh-B7IP-93" vertex="1" connectable="0">
          <mxGeometry x="-0.3187" y="-3" relative="1" as="geometry">
            <mxPoint as="offset" />
          </mxGeometry>
        </mxCell>
        <mxCell id="YZ6cj2licxc5QXh-B7IP-113" style="edgeStyle=orthogonalEdgeStyle;rounded=0;orthogonalLoop=1;jettySize=auto;html=1;entryX=0.5;entryY=0;entryDx=0;entryDy=0;entryPerimeter=0;" parent="1" source="YZ6cj2licxc5QXh-B7IP-92" target="YZ6cj2licxc5QXh-B7IP-111" edge="1">
          <mxGeometry relative="1" as="geometry">
            <mxPoint x="2370" y="1810" as="targetPoint" />
            <Array as="points">
              <mxPoint x="2365" y="1723" />
            </Array>
          </mxGeometry>
        </mxCell>
        <mxCell id="YZ6cj2licxc5QXh-B7IP-92" value="到达押金应退换时间" style="strokeWidth=2;html=1;shape=mxgraph.flowchart.decision;whiteSpace=wrap;" parent="1" vertex="1">
          <mxGeometry x="2300" y="1620" width="130" height="80" as="geometry" />
        </mxCell>
        <mxCell id="YZ6cj2licxc5QXh-B7IP-108" value="押金结束" style="strokeWidth=2;html=1;shape=mxgraph.flowchart.terminator;whiteSpace=wrap;" parent="1" vertex="1">
          <mxGeometry x="2139.93" y="2570" width="100" height="60" as="geometry" />
        </mxCell>
        <mxCell id="YZ6cj2licxc5QXh-B7IP-112" style="edgeStyle=orthogonalEdgeStyle;rounded=0;orthogonalLoop=1;jettySize=auto;html=1;exitX=0.5;exitY=1;exitDx=0;exitDy=0;exitPerimeter=0;entryX=0.5;entryY=0;entryDx=0;entryDy=0;entryPerimeter=0;" parent="1" source="YZ6cj2licxc5QXh-B7IP-111" target="IQoeNceA4I0Qv3CxPhP2-8" edge="1">
          <mxGeometry relative="1" as="geometry" />
        </mxCell>
        <mxCell id="YZ6cj2licxc5QXh-B7IP-114" value="否" style="edgeLabel;html=1;align=center;verticalAlign=middle;resizable=0;points=[];" parent="YZ6cj2licxc5QXh-B7IP-112" vertex="1" connectable="0">
          <mxGeometry x="-0.5284" y="1" relative="1" as="geometry">
            <mxPoint as="offset" />
          </mxGeometry>
        </mxCell>
        <mxCell id="IQoeNceA4I0Qv3CxPhP2-13" value="" style="edgeStyle=orthogonalEdgeStyle;rounded=0;orthogonalLoop=1;jettySize=auto;html=1;" edge="1" parent="1" source="YZ6cj2licxc5QXh-B7IP-111" target="IQoeNceA4I0Qv3CxPhP2-12">
          <mxGeometry relative="1" as="geometry" />
        </mxCell>
        <mxCell id="IQoeNceA4I0Qv3CxPhP2-14" value="是" style="edgeLabel;html=1;align=center;verticalAlign=middle;resizable=0;points=[];" vertex="1" connectable="0" parent="IQoeNceA4I0Qv3CxPhP2-13">
          <mxGeometry x="-0.5147" y="-1" relative="1" as="geometry">
            <mxPoint as="offset" />
          </mxGeometry>
        </mxCell>
        <mxCell id="YZ6cj2licxc5QXh-B7IP-111" value="用户是否免押" style="strokeWidth=2;html=1;shape=mxgraph.flowchart.decision;whiteSpace=wrap;" parent="1" vertex="1">
          <mxGeometry x="2315" y="1750" width="100" height="100" as="geometry" />
        </mxCell>
        <mxCell id="IQoeNceA4I0Qv3CxPhP2-5" style="edgeStyle=orthogonalEdgeStyle;rounded=0;orthogonalLoop=1;jettySize=auto;html=1;entryX=0.5;entryY=0;entryDx=0;entryDy=0;entryPerimeter=0;" edge="1" parent="1" source="IQoeNceA4I0Qv3CxPhP2-2" target="YZ6cj2licxc5QXh-B7IP-90">
          <mxGeometry relative="1" as="geometry" />
        </mxCell>
        <mxCell id="IQoeNceA4I0Qv3CxPhP2-2" value="修改押金应退款时间" style="verticalLabelPosition=bottom;verticalAlign=top;html=1;shape=process;whiteSpace=wrap;rounded=1;size=0.14;arcSize=6;" vertex="1" parent="1">
          <mxGeometry x="2190" y="1130" width="110" height="60" as="geometry" />
        </mxCell>
        <mxCell id="IQoeNceA4I0Qv3CxPhP2-32" style="edgeStyle=orthogonalEdgeStyle;rounded=0;orthogonalLoop=1;jettySize=auto;html=1;entryX=0.5;entryY=0;entryDx=0;entryDy=0;entryPerimeter=0;" edge="1" parent="1" source="IQoeNceA4I0Qv3CxPhP2-6" target="IQoeNceA4I0Qv3CxPhP2-30">
          <mxGeometry relative="1" as="geometry">
            <Array as="points">
              <mxPoint x="2750" y="1580" />
              <mxPoint x="2535" y="1580" />
            </Array>
          </mxGeometry>
        </mxCell>
        <mxCell id="IQoeNceA4I0Qv3CxPhP2-6" value="取消原押金退款，原押金赔偿" style="verticalLabelPosition=bottom;verticalAlign=top;html=1;shape=process;whiteSpace=wrap;rounded=1;size=0.14;arcSize=6;" vertex="1" parent="1">
          <mxGeometry x="2695" y="1500" width="170" height="60" as="geometry" />
        </mxCell>
        <mxCell id="IQoeNceA4I0Qv3CxPhP2-31" style="edgeStyle=orthogonalEdgeStyle;rounded=0;orthogonalLoop=1;jettySize=auto;html=1;exitX=0.5;exitY=1;exitDx=0;exitDy=0;" edge="1" parent="1" source="IQoeNceA4I0Qv3CxPhP2-7" target="IQoeNceA4I0Qv3CxPhP2-6">
          <mxGeometry relative="1" as="geometry" />
        </mxCell>
        <mxCell id="IQoeNceA4I0Qv3CxPhP2-7" value="客服介入，调整押金赔偿" style="verticalLabelPosition=bottom;verticalAlign=top;html=1;shape=process;whiteSpace=wrap;rounded=1;size=0.14;arcSize=6;" vertex="1" parent="1">
          <mxGeometry x="2700" y="1380" width="160" height="60" as="geometry" />
        </mxCell>
        <mxCell id="IQoeNceA4I0Qv3CxPhP2-9" value="是" style="edgeStyle=orthogonalEdgeStyle;rounded=0;orthogonalLoop=1;jettySize=auto;html=1;exitX=0.5;exitY=1;exitDx=0;exitDy=0;exitPerimeter=0;entryX=0.5;entryY=0;entryDx=0;entryDy=0;" edge="1" parent="1" source="IQoeNceA4I0Qv3CxPhP2-8" target="YZ6cj2licxc5QXh-B7IP-51">
          <mxGeometry relative="1" as="geometry" />
        </mxCell>
        <mxCell id="IQoeNceA4I0Qv3CxPhP2-8" value="押金退款 &amp;gt; 0" style="strokeWidth=2;html=1;shape=mxgraph.flowchart.decision;whiteSpace=wrap;" vertex="1" parent="1">
          <mxGeometry x="2315" y="1900" width="100" height="60" as="geometry" />
        </mxCell>
        <mxCell id="IQoeNceA4I0Qv3CxPhP2-41" style="edgeStyle=orthogonalEdgeStyle;rounded=0;orthogonalLoop=1;jettySize=auto;html=1;entryX=0.5;entryY=0;entryDx=0;entryDy=0;" edge="1" parent="1" source="IQoeNceA4I0Qv3CxPhP2-10" target="IQoeNceA4I0Qv3CxPhP2-34">
          <mxGeometry relative="1" as="geometry" />
        </mxCell>
        <mxCell id="IQoeNceA4I0Qv3CxPhP2-42" style="edgeStyle=orthogonalEdgeStyle;rounded=0;orthogonalLoop=1;jettySize=auto;html=1;entryX=0.5;entryY=0;entryDx=0;entryDy=0;" edge="1" parent="1" source="IQoeNceA4I0Qv3CxPhP2-10" target="IQoeNceA4I0Qv3CxPhP2-33">
          <mxGeometry relative="1" as="geometry" />
        </mxCell>
        <mxCell id="IQoeNceA4I0Qv3CxPhP2-10" value="" style="verticalLabelPosition=bottom;verticalAlign=top;html=1;shape=mxgraph.flowchart.parallel_mode;pointerEvents=1" vertex="1" parent="1">
          <mxGeometry x="2485" y="1775" width="95" height="40" as="geometry" />
        </mxCell>
        <mxCell id="IQoeNceA4I0Qv3CxPhP2-15" style="edgeStyle=orthogonalEdgeStyle;rounded=0;orthogonalLoop=1;jettySize=auto;html=1;exitX=0.5;exitY=1;exitDx=0;exitDy=0;" edge="1" parent="1" source="IQoeNceA4I0Qv3CxPhP2-12" target="YZ6cj2licxc5QXh-B7IP-108">
          <mxGeometry relative="1" as="geometry" />
        </mxCell>
        <mxCell id="IQoeNceA4I0Qv3CxPhP2-12" value="修改押金单状态为完结" style="shape=process;whiteSpace=wrap;html=1;backgroundOutline=1;strokeWidth=2;" vertex="1" parent="1">
          <mxGeometry x="2129.93" y="2470" width="120" height="60" as="geometry" />
        </mxCell>
        <mxCell id="IQoeNceA4I0Qv3CxPhP2-38" style="edgeStyle=orthogonalEdgeStyle;rounded=0;orthogonalLoop=1;jettySize=auto;html=1;entryX=0.5;entryY=0;entryDx=0;entryDy=0;entryPerimeter=0;" edge="1" parent="1" source="IQoeNceA4I0Qv3CxPhP2-30" target="IQoeNceA4I0Qv3CxPhP2-10">
          <mxGeometry relative="1" as="geometry" />
        </mxCell>
        <mxCell id="IQoeNceA4I0Qv3CxPhP2-39" value="是" style="edgeLabel;html=1;align=center;verticalAlign=middle;resizable=0;points=[];" vertex="1" connectable="0" parent="IQoeNceA4I0Qv3CxPhP2-38">
          <mxGeometry x="-0.327" relative="1" as="geometry">
            <mxPoint as="offset" />
          </mxGeometry>
        </mxCell>
        <mxCell id="IQoeNceA4I0Qv3CxPhP2-44" value="否" style="edgeStyle=orthogonalEdgeStyle;rounded=0;orthogonalLoop=1;jettySize=auto;html=1;entryX=0.5;entryY=0;entryDx=0;entryDy=0;entryPerimeter=0;" edge="1" parent="1" source="IQoeNceA4I0Qv3CxPhP2-30" target="IQoeNceA4I0Qv3CxPhP2-43">
          <mxGeometry relative="1" as="geometry" />
        </mxCell>
        <mxCell id="IQoeNceA4I0Qv3CxPhP2-30" value="已支付押金金额&amp;nbsp; &lt;br&gt;大于赔偿金额" style="strokeWidth=2;html=1;shape=mxgraph.flowchart.decision;whiteSpace=wrap;" vertex="1" parent="1">
          <mxGeometry x="2462.5" y="1660" width="145" height="80" as="geometry" />
        </mxCell>
        <mxCell id="IQoeNceA4I0Qv3CxPhP2-64" style="edgeStyle=orthogonalEdgeStyle;rounded=0;orthogonalLoop=1;jettySize=auto;html=1;entryX=0.5;entryY=0;entryDx=0;entryDy=0;" edge="1" parent="1" source="IQoeNceA4I0Qv3CxPhP2-33" target="IQoeNceA4I0Qv3CxPhP2-49">
          <mxGeometry relative="1" as="geometry" />
        </mxCell>
        <mxCell id="IQoeNceA4I0Qv3CxPhP2-33" value="生成押金赔偿单" style="verticalLabelPosition=bottom;verticalAlign=top;html=1;shape=process;whiteSpace=wrap;rounded=1;size=0.14;arcSize=6;" vertex="1" parent="1">
          <mxGeometry x="2650" y="1870" width="100" height="60" as="geometry" />
        </mxCell>
        <mxCell id="IQoeNceA4I0Qv3CxPhP2-48" style="edgeStyle=orthogonalEdgeStyle;rounded=0;orthogonalLoop=1;jettySize=auto;html=1;" edge="1" parent="1" source="IQoeNceA4I0Qv3CxPhP2-34" target="IQoeNceA4I0Qv3CxPhP2-47">
          <mxGeometry relative="1" as="geometry" />
        </mxCell>
        <mxCell id="IQoeNceA4I0Qv3CxPhP2-34" value="生成押金退款单" style="verticalLabelPosition=bottom;verticalAlign=top;html=1;shape=process;whiteSpace=wrap;rounded=1;size=0.14;arcSize=6;" vertex="1" parent="1">
          <mxGeometry x="2480" y="1860" width="100" height="60" as="geometry" />
        </mxCell>
        <mxCell id="IQoeNceA4I0Qv3CxPhP2-65" style="edgeStyle=orthogonalEdgeStyle;rounded=0;orthogonalLoop=1;jettySize=auto;html=1;" edge="1" parent="1" source="IQoeNceA4I0Qv3CxPhP2-35" target="IQoeNceA4I0Qv3CxPhP2-50">
          <mxGeometry relative="1" as="geometry" />
        </mxCell>
        <mxCell id="IQoeNceA4I0Qv3CxPhP2-35" value="生成押金欠款支付单" style="verticalLabelPosition=bottom;verticalAlign=top;html=1;shape=process;whiteSpace=wrap;rounded=1;size=0.14;arcSize=6;" vertex="1" parent="1">
          <mxGeometry x="2850" y="1870" width="100" height="60" as="geometry" />
        </mxCell>
        <mxCell id="IQoeNceA4I0Qv3CxPhP2-45" style="edgeStyle=orthogonalEdgeStyle;rounded=0;orthogonalLoop=1;jettySize=auto;html=1;exitX=0.5;exitY=1;exitDx=0;exitDy=0;exitPerimeter=0;entryX=0.75;entryY=0;entryDx=0;entryDy=0;" edge="1" parent="1" source="IQoeNceA4I0Qv3CxPhP2-43" target="IQoeNceA4I0Qv3CxPhP2-33">
          <mxGeometry relative="1" as="geometry" />
        </mxCell>
        <mxCell id="IQoeNceA4I0Qv3CxPhP2-46" style="edgeStyle=orthogonalEdgeStyle;rounded=0;orthogonalLoop=1;jettySize=auto;html=1;entryX=0.5;entryY=0.167;entryDx=0;entryDy=0;entryPerimeter=0;" edge="1" parent="1" source="IQoeNceA4I0Qv3CxPhP2-43" target="IQoeNceA4I0Qv3CxPhP2-35">
          <mxGeometry relative="1" as="geometry" />
        </mxCell>
        <mxCell id="IQoeNceA4I0Qv3CxPhP2-43" value="" style="verticalLabelPosition=bottom;verticalAlign=top;html=1;shape=mxgraph.flowchart.parallel_mode;pointerEvents=1" vertex="1" parent="1">
          <mxGeometry x="2730" y="1775" width="95" height="40" as="geometry" />
        </mxCell>
        <mxCell id="IQoeNceA4I0Qv3CxPhP2-62" style="edgeStyle=orthogonalEdgeStyle;rounded=0;orthogonalLoop=1;jettySize=auto;html=1;entryX=0.5;entryY=0;entryDx=0;entryDy=0;" edge="1" parent="1" source="IQoeNceA4I0Qv3CxPhP2-47" target="IQoeNceA4I0Qv3CxPhP2-59">
          <mxGeometry relative="1" as="geometry" />
        </mxCell>
        <mxCell id="IQoeNceA4I0Qv3CxPhP2-47" value="调用支付中心退押金" style="verticalLabelPosition=bottom;verticalAlign=top;html=1;shape=process;whiteSpace=wrap;rounded=1;size=0.14;arcSize=6;fillColor=#fff2cc;strokeColor=#d6b656;" vertex="1" parent="1">
          <mxGeometry x="2475" y="2000" width="110" height="60" as="geometry" />
        </mxCell>
        <mxCell id="IQoeNceA4I0Qv3CxPhP2-63" value="" style="edgeStyle=orthogonalEdgeStyle;rounded=0;orthogonalLoop=1;jettySize=auto;html=1;" edge="1" parent="1" source="IQoeNceA4I0Qv3CxPhP2-49" target="IQoeNceA4I0Qv3CxPhP2-60">
          <mxGeometry relative="1" as="geometry" />
        </mxCell>
        <mxCell id="IQoeNceA4I0Qv3CxPhP2-49" value="调用支付中心赔偿房东" style="verticalLabelPosition=bottom;verticalAlign=top;html=1;shape=process;whiteSpace=wrap;rounded=1;size=0.14;arcSize=6;fillColor=#fff2cc;strokeColor=#d6b656;" vertex="1" parent="1">
          <mxGeometry x="2635" y="2000" width="130" height="60" as="geometry" />
        </mxCell>
        <mxCell id="IQoeNceA4I0Qv3CxPhP2-66" style="edgeStyle=orthogonalEdgeStyle;rounded=0;orthogonalLoop=1;jettySize=auto;html=1;" edge="1" parent="1" source="IQoeNceA4I0Qv3CxPhP2-50" target="IQoeNceA4I0Qv3CxPhP2-61">
          <mxGeometry relative="1" as="geometry" />
        </mxCell>
        <mxCell id="IQoeNceA4I0Qv3CxPhP2-50" value="调用支付中心房客支付" style="verticalLabelPosition=bottom;verticalAlign=top;html=1;shape=process;whiteSpace=wrap;rounded=1;size=0.14;arcSize=6;fillColor=#fff2cc;strokeColor=#d6b656;" vertex="1" parent="1">
          <mxGeometry x="2830" y="2000" width="140" height="60" as="geometry" />
        </mxCell>
        <mxCell id="IQoeNceA4I0Qv3CxPhP2-72" style="edgeStyle=orthogonalEdgeStyle;rounded=0;orthogonalLoop=1;jettySize=auto;html=1;entryX=1;entryY=0;entryDx=0;entryDy=0;" edge="1" parent="1" source="IQoeNceA4I0Qv3CxPhP2-51" target="IQoeNceA4I0Qv3CxPhP2-12">
          <mxGeometry relative="1" as="geometry" />
        </mxCell>
        <mxCell id="IQoeNceA4I0Qv3CxPhP2-51" value="更新房东赔偿申请单据相关信息状态" style="verticalLabelPosition=bottom;verticalAlign=top;html=1;shape=process;whiteSpace=wrap;rounded=1;size=0.14;arcSize=6;opacity=70;" vertex="1" parent="1">
          <mxGeometry x="2570" y="2260" width="220" height="60" as="geometry" />
        </mxCell>
        <mxCell id="IQoeNceA4I0Qv3CxPhP2-70" style="edgeStyle=orthogonalEdgeStyle;rounded=0;orthogonalLoop=1;jettySize=auto;html=1;entryX=0.25;entryY=0;entryDx=0;entryDy=0;" edge="1" parent="1" source="IQoeNceA4I0Qv3CxPhP2-59" target="IQoeNceA4I0Qv3CxPhP2-51">
          <mxGeometry relative="1" as="geometry" />
        </mxCell>
        <mxCell id="IQoeNceA4I0Qv3CxPhP2-59" value="更新押金退款状态" style="verticalLabelPosition=bottom;verticalAlign=top;html=1;shape=process;whiteSpace=wrap;rounded=1;size=0.14;arcSize=6;" vertex="1" parent="1">
          <mxGeometry x="2480" y="2130" width="100" height="60" as="geometry" />
        </mxCell>
        <mxCell id="IQoeNceA4I0Qv3CxPhP2-68" style="edgeStyle=orthogonalEdgeStyle;rounded=0;orthogonalLoop=1;jettySize=auto;html=1;" edge="1" parent="1" source="IQoeNceA4I0Qv3CxPhP2-60" target="IQoeNceA4I0Qv3CxPhP2-51">
          <mxGeometry relative="1" as="geometry" />
        </mxCell>
        <mxCell id="IQoeNceA4I0Qv3CxPhP2-60" value="更新押金赔偿状态" style="verticalLabelPosition=bottom;verticalAlign=top;html=1;shape=process;whiteSpace=wrap;rounded=1;size=0.14;arcSize=6;" vertex="1" parent="1">
          <mxGeometry x="2650" y="2130" width="100" height="60" as="geometry" />
        </mxCell>
        <mxCell id="IQoeNceA4I0Qv3CxPhP2-71" style="edgeStyle=orthogonalEdgeStyle;rounded=0;orthogonalLoop=1;jettySize=auto;html=1;entryX=0.75;entryY=0;entryDx=0;entryDy=0;" edge="1" parent="1" source="IQoeNceA4I0Qv3CxPhP2-61" target="IQoeNceA4I0Qv3CxPhP2-51">
          <mxGeometry relative="1" as="geometry">
            <Array as="points">
              <mxPoint x="2900" y="2220" />
              <mxPoint x="2735" y="2220" />
            </Array>
          </mxGeometry>
        </mxCell>
        <mxCell id="IQoeNceA4I0Qv3CxPhP2-61" value="更新押金欠款支付状态" style="verticalLabelPosition=bottom;verticalAlign=top;html=1;shape=process;whiteSpace=wrap;rounded=1;size=0.14;arcSize=6;" vertex="1" parent="1">
          <mxGeometry x="2835" y="2130" width="130" height="60" as="geometry" />
        </mxCell>
        <mxCell id="IQoeNceA4I0Qv3CxPhP2-75" value="订单结束" style="strokeWidth=2;html=1;shape=mxgraph.flowchart.terminator;whiteSpace=wrap;opacity=70;" vertex="1" parent="1">
          <mxGeometry x="1490" y="2050" width="100" height="60" as="geometry" />
        </mxCell>
      </root>
    </mxGraphModel>
  </diagram>
</mxfile>
